<svg width="881" height="884" viewBox="0 0 881 884" fill="none" xmlns="http://www.w3.org/2000/svg">
<path d="M129.078 373.001C323.089 198.88 543.545 206.584 726.078 378.999L659.078 442C473.24 310.143 386.028 312.235 196.078 442L129.078 373.001Z" fill="#FFEE02"/>
<rect x="77.0762" y="189.355" width="120.773" height="97.0389" transform="rotate(52.5875 77.0762 189.355)" fill="#FFEE02"/>
<rect x="211.105" y="53" width="170.8" height="97.0389" transform="rotate(66.5027 211.105 53)" fill="#FFEE02"/>
<rect x="408.49" width="190" height="97.0389" transform="rotate(83.8099 408.49 0)" fill="#FFEE02"/>
<rect x="623.801" y="32.875" width="170" height="97.039" transform="rotate(101.819 623.801 32.875)" fill="#FFEE02"/>
<rect x="880.909" y="240.768" width="120" height="97.039" transform="rotate(136.826 880.909 240.768)" fill="#FFEE02"/>
<rect width="120.773" height="97.0389" transform="matrix(0.60755 -0.794282 -0.794282 -0.60755 84.0762 693.883)" fill="#FFEE02"/>
<rect width="170.8" height="97.0389" transform="matrix(0.398705 -0.917079 -0.917079 -0.398705 218.105 830.238)" fill="#FFEE02"/>
<rect width="190" height="97.0389" transform="matrix(0.107827 -0.99417 -0.99417 -0.107827 415.492 883.238)" fill="#FFEE02"/>
<rect width="170" height="97.0389" transform="matrix(-0.204814 -0.978801 -0.978801 0.204814 619.629 850.363)" fill="#FFEE02"/>
<rect width="120" height="97.0389" transform="matrix(-0.729278 -0.684217 -0.684217 0.729278 880.909 644.105)" fill="#FFEE02"/>
<circle cx="435.48" cy="439.5" r="58.5" fill="#FFEE02"/>
<path d="M726.259 508.998C532.966 683.916 312.48 677.119 129.239 505.457L195.979 442.181C382.358 573.272 469.561 570.821 658.975 440.276L726.259 508.998Z" fill="#FFEE02"/>
</svg>
